<svg xmlns="http://www.w3.org/2000/svg" viewBox="0 0 64 64" role="img" aria-label="F1 news favicon">
  <defs>
    <linearGradient id="bg" x1="0" y1="0" x2="1" y2="1">
      <stop offset="0%" stop-color="#111111"/>
      <stop offset="100%" stop-color="#1f1f1f"/>
    </linearGradient>
    <linearGradient id="red" x1="0" y1="0" x2="1" y2="0">
      <stop offset="0%" stop-color="#ff2b2b"/>
      <stop offset="100%" stop-color="#c40000"/>
    </linearGradient>
  </defs>

  <rect x="4" y="4" width="56" height="56" rx="14" fill="url(#bg)"/>

  <!-- Speed stripe -->
  <path d="M10 18 L36 18 L28 26 L10 26 Z" fill="url(#red)"/>
  <path d="M10 28 L30 28 L22 36 L10 36 Z" fill="#ffffff" opacity="0.95"/>
  <path d="M10 38 L24 38 L16 46 L10 46 Z" fill="url(#red)" opacity="0.9"/>

  <!-- F -->
  <path d="M36 18 H52 L48 24 H42 L40 28 H48 L44 34 H38 L34 46 H26 L36 18 Z" fill="#ffffff"/>

  <!-- 1 -->
  <path d="M47 36 H55 L51 46 H43 Z" fill="url(#red)"/>

  <!-- News dot -->
  <circle cx="52" cy="14" r="4" fill="#ffd400"/>
</svg>
